<?xml version="1.0" encoding="UTF-8"?><svg id="Calque_1" xmlns="http://www.w3.org/2000/svg" viewBox="0 0 512 512"><defs><style>.cls-1{fill:#404040;}.cls-2{fill:#00a19a;}</style></defs><path class="cls-2" d="M147.67,114.11v1.98c0,20.61-15.73,31.49-55.06,31.49s-55.51-15.99-55.51-40.73v-1.98h29.09v2.14c0,11.38,8.31,15.5,25.82,15.5,18.55,0,26.12-3.63,26.12-11.05v-1.65c0-6.43-4.6-9.4-16.92-9.4h-28.35v-19.79h27.76c10.83,0,15.73-3.46,15.73-10.22v-1.65c0-6.76-5.64-10.22-23.16-10.22-19.29,0-25.82,4.62-25.82,14.34v2.31h-29.24v-2.47c0-23.74,15.88-39.08,55.51-39.08s52.25,10.39,52.25,29.18v1.98c0,10.55-4.9,20.28-15.73,25.23,12.62,3.96,17.51,12.69,17.51,24.07Z"/><path class="cls-2" d="M278.41,108v2.97c0,24.4-15.58,36.61-57.14,36.61-43.19.16-58.03-17.15-58.03-46.99v-18.96c0-31.33,17.81-47.81,58.63-47.81,37.4-.17,54.47,14.34,54.47,37.76v2.47h-29.39v-2.47c0-8.24-6.38-11.87-24.94-11.87-23.75,0-29.54,6.76-29.54,22.92v3.63c7.57-5.77,20.33-8.74,41.11-8.74,30.87,0,44.82,8.74,44.82,30.5ZM249.02,106.69c0-7.58-5.64-11.54-27.76-11.54s-28.05,3.96-28.05,11.54v2.8c0,7.75,5.05,12.2,28.05,12.2s27.76-4.45,27.76-12.2v-2.8Z"/><path class="cls-1" d="M71.74,222.32v10.41h-14.67c-11.63,0-15.38-4.95-15.38-15.87v-8.4h-5.11v-9.91h5.11v-8.76h11.38v8.76h17.9v9.91h-17.9v6.75c0,5.1,1.36,7.11,6.85,7.11h11.83Z"/><path class="cls-1" d="M90.02,205.52c2.72-5.46,8.27-8.26,18.81-7.83v10.99c-15.12-.07-17.9,2.23-17.9,9.48v14.58h-11.38v-34.18h10.47v6.97Z"/><path class="cls-1" d="M154.58,214.78v17.95h-10.47v-4.45c-2.78,3.88-8.21,5.24-15.38,5.24h-4.14c-10.73,0-14.15-3.37-14.15-9.62v-.65c0-5.74,3.3-9.05,10.92-9.05h22.04c-.07-4.95-2.26-6.82-10.34-6.82s-10.02,1.72-10.02,4.31v.72h-11.12v-.65c0-7.83,4.85-14.22,21.2-14.22s21.46,6.03,21.46,17.23ZM133.38,225.62c5.69,0,10.02-1.44,10.02-5.1v-.79h-18.1c-2.65,0-3.49.93-3.49,2.23v.43c0,2.01.97,3.23,7.24,3.23h4.33Z"/><path class="cls-1" d="M209.45,215.43v17.3h-11.31v-15.15c0-7.61-3.3-9.76-10.53-9.76s-12.35,2.8-12.35,10.27v14.65h-11.38v-34.18h10.34v6.89c3.17-5.24,8.92-7.83,16.68-7.83,11.57,0,18.55,4.31,18.55,17.81Z"/><path class="cls-1" d="M253.84,198.56h10.21v46.6h-11.31v-15.87c-3.04,2.8-7.95,4.38-15.51,4.38-14.74,0-20.55-5.31-20.55-16.15v-3.59c0-10.91,5.82-16.3,20.55-16.3,8.79,0,13.83,2.01,16.61,5.74v-4.81ZM252.74,217.3v-3.23c0-4.38-2.71-6.39-11.96-6.39-9.82,0-12.22,1.94-12.22,6.46v2.94c0,4.67,2.46,6.53,12.22,6.53,9.24,0,11.96-2.01,11.96-6.32Z"/><path class="cls-1" d="M306.76,198.56h11.38v34.18h-10.34v-6.68c-3.17,5.1-8.79,7.61-16.48,7.61-11.89,0-18.87-4.31-18.87-17.81v-17.3h11.31v15.08c0,7.68,3.23,9.84,10.79,9.84s12.22-2.73,12.22-10.41v-14.5Z"/><path class="cls-1" d="M327.95,188.22c0-4.02,2.13-6.03,6.33-6.03s6.27,2.01,6.27,6.03-2,6.1-6.27,6.1-6.33-2.15-6.33-6.1ZM328.47,245.15v-34.18h11.38v34.18h-11.38Z"/><path class="cls-1" d="M370.73,175.8c0-4.02,2.13-6.03,6.33-6.03s6.27,2.01,6.27,6.03-2,6.1-6.27,6.1-6.33-2.15-6.33-6.1ZM371.25,232.73v-34.18h11.38v34.18h-11.38Z"/><path class="cls-1" d="M424.76,222.32v10.41h-14.67c-11.63,0-15.38-4.95-15.38-15.87v-8.4h-5.11v-9.91h5.11v-8.76h11.38v8.76h17.9v9.91h-17.9v6.75c0,5.1,1.36,7.11,6.85,7.11h11.83Z"/><path class="cls-1" d="M475.42,217.15h-34.26v.43c0,4.16,2.39,6.03,11.25,6.03s11.44-1.44,11.44-3.95v-.43h11.57v.57c0,8.97-5.43,13.93-23.07,13.93s-23.01-5.53-23.01-16.3v-3.52c0-10.84,5.62-16.37,22.94-16.44,17.58,0,23.14,5.39,23.14,15.87v3.81ZM441.23,212.27h22.56c-.26-3.59-3.43-5.1-11.5-5.1s-10.66,1.58-11.05,5.1Z"/><path class="cls-2" d="M355.79,33.64c-39.63,0-60.26,17.31-60.26,49.46v13.85c0,31.79,18.63,48.99,54.46,50.5v85.27h11.31v-85.29c35.74-1.56,54.46-18.62,54.46-50.49v-13.85c0-32.15-20.63-49.63-59.96-49.46ZM386.66,95.64c0,17.64-10.69,24.57-30.87,24.57s-31.17-6.93-31.17-24.57v-11.38c0-16.49,10.69-23.25,31.17-23.25s30.87,6.76,30.87,23.25v11.38Z"/><path class="cls-1" d="M353.82,478.36c-31.75-11.01-60.27-29.61-77.07-59.37-20.12-35.65-19.61-77.81-18.58-117.59.12-4.57-.88-14.22.8-17.87,2.91-6.35,12.08-4.3,17.62-4.7,23.89-1.73,45.87-8.79,64.68-23.7,3-2.37,9.04-8.91,12.17-9.7,6.47-1.62,9.86,4.32,14.28,7.87,20.05,16.13,41.21,23.65,66.96,25.52,5.55.4,14.71-1.65,17.62,4.7,1.68,3.66.68,13.3.8,17.87,1.03,39.78,1.54,81.94-18.58,117.59-16.82,29.79-45.32,48.31-77.07,59.37h-3.64ZM436.73,295.23c-26.02-1.14-50.08-8.17-71.39-23.14-1.55-1.09-9-7.37-9.85-7.3-.63.06-7.85,6.12-9.27,7.11-21.39,15.06-45.51,22.19-71.66,23.32-1.72,52.21-3.52,109.69,41.5,145.05,11.7,9.19,25.65,16.33,39.74,21.1,34.67-11.87,62.47-35.45,73.77-71.04,8.19-25.81,9.05-61.9,7.64-88.97-.1-1.98-.83-4.01-.48-6.13Z"/><path class="cls-2" d="M387.41,331.32c9.13-1.56,13.42,7.8,7.42,14.25-15.13,13.11-28.75,31.36-43.96,43.96-3.49,2.89-7.35,4.1-11.4,1.35l-24.92-25.19c-3.78-8.21,5.11-15.85,12.39-10.12,6.02,4.73,11.19,12.52,17.47,17.05l39.91-39.84c.81-.74,2.01-1.29,3.08-1.47Z"/></svg>